<?xml version="1.0" encoding="iso-8859-1"?>
<!-- Generator: Adobe Illustrator 26.5.0, SVG Export Plug-In . SVG Version: 6.00 Build 0)  -->
<svg version="1.1" baseProfile="basic" id="&#x421;&#x43B;&#x43E;&#x439;_1"
	 xmlns="http://www.w3.org/2000/svg" xmlns:xlink="http://www.w3.org/1999/xlink" x="0px" y="0px" viewBox="0 0 64 64"
	 xml:space="preserve">
<g>
	<circle style="fill:#FD3C4F;" cx="32" cy="32" r="23"/>
	<ellipse style="opacity:0.3;" cx="32" cy="61" rx="19" ry="3"/>
	<g>
		<path style="opacity:0.3;fill:#FFFFFF;" d="M32,14c2.577,0,4.674-1.957,4.946-4.461C35.352,9.19,33.699,9,32,9
			C19.297,9,9,19.297,9,32c0,1.699,0.19,3.352,0.539,4.946C12.044,36.674,14,34.577,14,32C14,22.075,22.075,14,32,14z"/>
		<path style="opacity:0.15;" d="M54.461,27.054C51.956,27.326,50,29.423,50,32c0,9.925-8.075,18-18,18
			c-2.577,0-4.674,1.957-4.946,4.461C28.648,54.81,30.301,55,32,55c12.703,0,23-10.297,23-23C55,30.301,54.81,28.648,54.461,27.054z
			"/>
	</g>
	<path style="fill:none;stroke:#FFFFFF;stroke-width:3;stroke-linecap:round;stroke-linejoin:round;stroke-miterlimit:10;" d="
		M15.047,23.427c1.878-3.699,4.932-6.705,8.666-8.522"/>
</g>
<path style="fill:#A0EFFE;" d="M18.587,39.081c0.064-0.136,0.06-0.293-0.007-0.428C17.576,36.647,17,34.392,17,32
	c0-7.077,4.933-13.005,11.536-14.573c0.145-0.034,0.267-0.131,0.33-0.266l1.04-2.217c0.167-0.357-0.127-0.771-0.517-0.714
	C20.701,15.499,14,22.965,14,32c0,3.437,0.983,6.64,2.665,9.371c0.206,0.335,0.709,0.295,0.876-0.061L18.587,39.081z"/>
<path style="fill:#A0EFFE;" d="M32.5,33h-2.853c-0.349,0-0.59-0.348-0.469-0.675l3.81-10.224v4.723c0,0.125,0.046,0.245,0.13,0.337
	l4.011,4.404c0.308,0.338,0.87,0.12,0.87-0.337V15.411c0-0.217-0.138-0.415-0.345-0.483c-1.512-0.501-3.109-0.806-4.769-0.887
	c-0.205-0.01-0.398,0.108-0.485,0.294l-13.727,29.27c-0.087,0.185-0.055,0.408,0.083,0.559c0.965,1.05,2.051,1.982,3.239,2.779
	c0.256,0.172,0.61,0.065,0.737-0.217l3.805-8.432C26.619,38.115,26.798,38,26.994,38H32.5c0.276,0,0.5,0.224,0.5,0.5v1.204
	c0,0.457,0.563,0.675,0.87,0.336l3.824-4.22c0.173-0.191,0.173-0.482-0.001-0.673l-3.824-4.194C33.562,30.616,33,30.834,33,31.29
	v1.21C33,32.776,32.776,33,32.5,33z"/>
<polygon style="fill:#A0EFFE;" points="38,44 38,38.462 32.989,43.99 "/>
<path style="fill:#A0EFFE;" d="M45.797,43.539c7.372-8.585,4.537-22.107-5.064-27.282C40.403,16.079,40,16.331,40,16.706v2.352
	c0,0.17,0.089,0.324,0.232,0.414c6.323,3.959,8.784,13.131,4.876,19.802c-3.54,6.626-12.295,9.636-19.16,6.428
	c-0.253-0.118-0.551-0.016-0.666,0.238l-0.829,1.838c-0.114,0.254-0.004,0.559,0.251,0.671c1.165,0.514,2.398,0.896,3.675,1.158
	l-0.006,0.027c0.866,0.147,1.739,0.259,2.615,0.333v-0.018c3.152,0.243,6.334-0.513,9.011-1.849v0.015
	C42.211,46.992,44.202,45.44,45.797,43.539z"/>
</svg>